# xmcd
# 
# Track frame offsets:
#     150
#     16210
#     36878
#     56520
#     75868
#     93705
#     124418
#     136438
#     150370
#     166798
#     184790
#     205530
#     223240
#     245163
#     259783
#     271773
#     292898
#     313525
#     334363
# 
# Disc length: 4699
# 
# Revision: 3
# Processed by: cddbd v1.5.2PL0 Copyright (c) Steve Scherf et al.
# Submitted via: fre:ac v1.0.31
# 
DISCID=0a125913
DTITLE=Hawaiian Musicians - ALOHA HEAVEN
DYEAR=2002
DGENRE=不明
TTITLE0=Lei Hali'a
TTITLE1=Beauty Hula
TTITLE2=He Aloha No O Honolulu
TTITLE3=Ke Ali'i O Na Lani
TTITLE4=I Will Be Here
TTITLE5=Kaopuiki Aloha
TTITLE6=My Yellow Ginger Lei
TTITLE7=Auhea Ku'u Lei Pua Bonita
TTITLE8=Ahi Wela
TTITLE9=Makua
TTITLE10=Eo Mai
TTITLE11=Te Makohe
TTITLE12=Meleana E
TTITLE13=Hali'ilua
TTITLE14=Ku'u Hoa
TTITLE15=Maunaleo
TTITLE16=Ho'o Launa Aloha
TTITLE17=Sweet Someone
TTITLE18=Now and Forever - Sweet Memory
EXTD=
EXTT0=
EXTT1=
EXTT2=
EXTT3=
EXTT4=
EXTT5=
EXTT6=
EXTT7=
EXTT8=
EXTT9=
EXTT10=
EXTT11=
EXTT12=
EXTT13=
EXTT14=
EXTT15=
EXTT16=
EXTT17=
EXTT18=
PLAYORDER=
